<svg width="54" height="54" viewBox="0 0 54 54" fill="none" xmlns="http://www.w3.org/2000/svg">
<circle cx="27" cy="27" r="27" fill="#FEFFFE"/>
<path fill-rule="evenodd" clip-rule="evenodd" d="M12.8572 34.2813C14.9536 19.9536 16.4689 13.6693 18.9791 12.0628C19.0513 13.5641 19.805 14.8514 22.5043 16.1362C20.4538 18.9898 20.8187 22.6022 22.4588 25.8812C23.2974 26.6786 24.1317 27.48 24.8479 28.3823C25.3909 29.0875 26.1054 29.5309 26.9772 29.7336C27.7484 29.5644 28.4345 29.183 29.0547 28.6422C29.828 27.7378 30.6359 26.896 31.4957 26.1474C32.4473 24.8277 32.985 22.859 32.898 19.9107C32.9036 18.4986 32.477 17.165 31.3399 15.9607C33.2862 15.1858 34.7968 14.1038 34.8715 12.0108C37.8618 14.4968 39.4125 23.2259 40.3248 34.723L40.7143 35.3987C33.9181 50.3881 18.6586 49.2832 13.0848 34.5644C13.0566 34.4901 12.8897 34.3542 12.8572 34.2813ZM40.0032 34.8822L38.3265 34.8816C33.6204 46.5587 18.6644 45.1452 15.2915 34.4824L13.7884 34.421C17.1306 44.3719 24.9812 45.4545 26.8679 45.4234C29.1279 45.386 36.9737 44.3926 40.0032 34.8822ZM37.8413 34.7653L37.8003 34.6743L35.9241 21.4961L36.872 34.6743L36.5087 34.8302C31.7618 41.3055 23.1276 41.9137 17.9986 34.6743L16.5456 34.6263L17.2337 21.4961L15.5328 34.0375L15.7295 34.6743C17.955 40.3894 23.032 42.549 26.777 42.5388C30.6072 42.5284 35.4741 40.5206 37.8413 34.7653ZM35.8288 34.6743H34.6322L33.6908 26.5841L33.9246 34.6743H33.6458C29.8469 38.7573 24.4115 39.0901 20.5305 34.6839L19.9474 34.6849L20.2719 26.5841L19.1943 34.6743L18.56 34.6875C20.0585 36.6345 23.5124 39.4047 27.2574 39.3945C31.0876 39.384 34.7729 36.4407 35.8288 34.6743ZM32.81 34.6743L31.1334 34.6737C28.4434 35.8972 25.8627 35.8554 23.3805 34.6708L21.41 34.6743C22.9085 36.6214 25.2668 37.3208 27.1535 37.2895C29.4135 37.2521 31.7282 36.1029 32.81 34.6743ZM23.6761 33.0046C26.0136 33.9639 28.6004 33.9587 31.1912 32.9732L31.1767 34.0602C28.9372 35.1763 26.2445 35.2256 23.6761 34.2974V33.0046ZM23.8546 31.2277C26.5627 31.3884 28.9889 30.686 31.1257 29.0969L31.0794 32.3192C28.8399 33.4352 26.423 33.4488 23.8546 32.5206V31.2277Z" fill="url(#paint0_linear_78_10)"/>
<path fill-rule="evenodd" clip-rule="evenodd" d="M27.069 11.0926C26.754 9.83233 25.8273 9.02008 24.3352 8.59137C26.0898 8.00512 27.9083 7.97785 29.8015 8.60438C28.1796 9.05337 27.3858 9.86189 27.069 11.0926Z" fill="#E9BC47"/>
<path fill-rule="evenodd" clip-rule="evenodd" d="M20.8742 13.1455C18.4125 9.23346 26.8209 7.8468 24.9587 12.1051C23.6986 14.1382 25.3254 15.0505 27.0683 15.6922V15.668C28.8112 15.0264 30.438 14.1141 29.1779 12.0809C27.3157 7.82261 35.7241 9.20933 33.2624 13.1213C32.7221 13.8376 31.66 14.4941 30.1465 15.033C29.2881 15.3386 26.1205 15.9882 28.283 16.9933C27.9422 17.0253 27.3918 16.9875 27.0683 16.4995V16.5237C26.7448 17.0117 26.1944 17.0494 25.8536 17.0175C28.0161 16.0124 24.8485 15.3627 23.9901 15.0571C22.4766 14.5182 21.4145 13.8617 20.8742 13.1455Z" fill="#E9BC47"/>
<path fill-rule="evenodd" clip-rule="evenodd" d="M26.1017 13.1257C25.8986 13.0449 25.8124 13.0658 25.7998 12.9503L25.7187 11.9335C25.6812 11.8406 25.5971 11.8327 25.5336 11.9303C25.3582 12.2605 25.2676 12.6332 25.2999 13.0672C25.5246 13.7401 26.5671 13.3413 26.1017 13.1257Z" fill="#E9BC47"/>
<path fill-rule="evenodd" clip-rule="evenodd" d="M28.0947 13.1257C28.2977 13.0449 28.384 13.0658 28.3966 12.9503L28.4777 11.9335C28.5151 11.8406 28.5993 11.8327 28.6627 11.9303C28.8381 12.2605 28.9287 12.6332 28.8964 13.0672C28.6718 13.7401 27.6292 13.3413 28.0947 13.1257Z" fill="#E9BC47"/>
<path fill-rule="evenodd" clip-rule="evenodd" d="M22.475 18.3689C22.1731 18.462 21.9547 18.6093 21.7998 18.7977C22.434 18.6613 23.0981 18.5567 23.715 18.9244L25.6691 20.123C25.7644 20.1537 25.8464 20.1314 25.9158 20.0581C25.9489 19.9451 25.939 19.8375 25.9028 19.7332C25.1615 19.1923 24.4065 18.7366 23.6305 18.4209C23.2185 18.2514 22.8351 18.2439 22.475 18.3689Z" fill="#E9BC47"/>
<path fill-rule="evenodd" clip-rule="evenodd" d="M22.7723 20.6328L22.1296 20.1196L22.8112 20.36C23.8588 19.7941 24.7077 20.3818 25.473 20.9902C25.3483 20.5547 25.0221 20.1696 24.5511 19.8208C23.9089 19.3523 23.1268 19.2281 22.2594 19.3141C21.6325 19.4012 21.4438 19.8692 21.5713 20.4509C21.9068 21.1514 22.4938 21.6447 23.2397 21.8282C23.1077 21.6982 23.0385 21.5729 23.019 21.4514C22.9822 21.2305 23.0017 21.053 23.0775 20.9187C23.1852 20.8229 23.3181 20.8346 23.4605 20.8862C23.327 22.1145 24.6231 22.2018 24.8173 21.2305L25.012 21.3994C25.106 21.5269 25.1475 21.7311 25.129 22.0232L25.6223 22.1336C25.6157 21.8576 25.5793 21.5931 25.46 21.3605C25.2485 21.0124 24.9947 20.6969 24.5576 20.5225C23.8691 20.286 23.3996 20.3126 22.7723 20.6328ZM24.3693 20.8474C24.5217 20.8474 24.6453 20.9621 24.6453 21.1035C24.6453 21.245 24.5217 21.3597 24.3693 21.3597C24.2169 21.3597 24.0933 21.245 24.0933 21.1035C24.0933 20.9621 24.2169 20.8474 24.3693 20.8474Z" fill="#E9BC47"/>
<path fill-rule="evenodd" clip-rule="evenodd" d="M26.5875 26.5842C26.0837 26.4938 25.5743 26.51 25.0619 26.5842C25.3191 25.7922 26.3391 25.2891 27.0694 25.8304V25.8287C27.7997 25.2875 28.8197 25.7906 29.0769 26.5826C28.5645 26.5083 28.0551 26.4922 27.5514 26.5826C27.392 26.6788 27.2466 26.7291 27.0694 26.7529C26.8922 26.7291 26.73 26.7033 26.5875 26.5842Z" fill="#E9BC47"/>
<path fill-rule="evenodd" clip-rule="evenodd" d="M27.0694 27.8735C26.1255 27.8831 25.4757 27.5065 25.0858 26.7885C25.5623 26.7329 26.0322 26.7199 26.4914 26.7769C26.8767 26.915 27.2535 26.9152 27.6209 26.7675C28.0885 26.7097 28.5503 26.6925 29.0005 26.7561C28.5963 27.5368 27.9411 27.8897 27.0694 27.8735Z" fill="#E9BC47"/>
<path fill-rule="evenodd" clip-rule="evenodd" d="M26.6765 24.6841C26.6375 24.4557 26.1636 24.5975 25.9072 24.5541C26.0458 24.3705 26.2294 24.2645 26.524 24.3495C26.6821 24.4014 26.7522 24.5023 26.6765 24.6841Z" fill="#E9BC47"/>
<path fill-rule="evenodd" clip-rule="evenodd" d="M27.3914 24.6841C27.4303 24.4557 27.9043 24.5975 28.1607 24.5541C28.0222 24.3705 27.8385 24.2645 27.544 24.3495C27.3858 24.4014 27.3158 24.5023 27.3914 24.6841Z" fill="#E9BC47"/>
<path fill-rule="evenodd" clip-rule="evenodd" d="M31.6357 18.2521C31.9376 18.3453 32.1561 18.4925 32.3109 18.6809C31.6768 18.5446 31.0126 18.4399 30.3958 18.8076L28.4417 20.0062C28.3464 20.0369 28.2643 20.0145 28.195 19.9412C28.1619 19.8282 28.1718 19.7207 28.2079 19.6164C28.9492 19.0754 29.7042 18.6198 30.4802 18.3041C30.8922 18.1346 31.2756 18.127 31.6357 18.2521Z" fill="#E9BC47"/>
<path fill-rule="evenodd" clip-rule="evenodd" d="M31.3372 20.5159L31.9799 20.0026L31.2983 20.243C30.2507 19.6772 29.4018 20.2649 28.6365 20.8732C28.7612 20.4378 29.0874 20.0527 29.5583 19.7038C30.2006 19.2353 30.9827 19.1111 31.85 19.1971C32.477 19.2842 32.6657 19.7522 32.5382 20.334C32.2027 21.0344 31.6157 21.5277 30.8698 21.7113C31.0018 21.5812 31.071 21.4559 31.0905 21.3344C31.1272 21.1136 31.1078 20.9361 31.032 20.8017C30.9243 20.706 30.7914 20.7177 30.649 20.7692C30.7825 21.9976 29.4864 22.0848 29.2922 21.1136L29.0975 21.2825C29.0035 21.41 28.962 21.6141 28.9805 21.9062L28.4872 22.0166C28.4938 21.7406 28.5302 21.4762 28.6495 21.2435C28.861 20.8954 29.1148 20.5799 29.5519 20.4055C30.2404 20.169 30.7098 20.1956 31.3372 20.5159ZM29.7402 20.7305C29.5878 20.7305 29.4642 20.8451 29.4642 20.9865C29.4642 21.128 29.5878 21.2427 29.7402 21.2427C29.8926 21.2427 30.0162 21.128 30.0162 20.9865C30.0162 20.8451 29.8926 20.7305 29.7402 20.7305Z" fill="#E9BC47"/>
<defs>
<linearGradient id="paint0_linear_78_10" x1="40.7143" y1="46.134" x2="12.8332" y2="12.0303" gradientUnits="userSpaceOnUse">
<stop stop-color="#CA9000"/>
<stop offset="0.0196078" stop-color="#BB7F00"/>
<stop offset="0.0392157" stop-color="#AC6E00"/>
<stop offset="0.0509804" stop-color="#915900"/>
<stop offset="0.121569" stop-color="#B3872C"/>
<stop offset="0.25098" stop-color="#D6B659"/>
<stop offset="0.501961" stop-color="#FFF6AC"/>
<stop offset="0.678431" stop-color="#EBD683"/>
<stop offset="0.74902" stop-color="#D6B659"/>
<stop offset="0.870588" stop-color="#B4882D"/>
<stop offset="0.941176" stop-color="#915900"/>
<stop offset="0.94902" stop-color="#AC6E00"/>
<stop offset="1" stop-color="#CA9000"/>
</linearGradient>
</defs>
</svg>
